<svg xmlns="http://www.w3.org/2000/svg" viewBox="0 0 64 64" width="64" height="64">
  <!-- Explorer Character: West Facing (Left Profile) -->
  <!-- Drop Shadow -->
  <ellipse cx="32" cy="56" rx="16" ry="6" fill="#000000" opacity="0.35" />

  <!-- Brown Backpack (Resting on Back / East side) -->
  <rect x="35" y="22" width="15" height="22" rx="4" fill="#78350f" stroke="#451a03" stroke-width="2" />
  <rect x="48" y="27" width="4" height="12" rx="2" fill="#92400e" stroke="#451a03" stroke-width="1" />
  <!-- Bedroll on top -->
  <rect x="35" y="17" width="16" height="6" rx="3" fill="#d97706" stroke="#451a03" stroke-width="1.5" />
  <rect x="43.5" y="17" width="2.5" height="6" fill="#451a03" />

  <!-- Hiking Boots (Profile) -->
  <rect x="19" y="49" width="12" height="7" rx="2" fill="#5c2e0b" stroke="#271304" stroke-width="1.5" />
  <rect x="18" y="53" width="14" height="3" rx="1" fill="#271304" />
  <rect x="29" y="49" width="12" height="7" rx="2" fill="#5c2e0b" stroke="#271304" stroke-width="1.5" />
  <rect x="28" y="53" width="14" height="3" rx="1" fill="#271304" />

  <!-- Blue Jeans (Profile Stride) -->
  <path d="M 39 38 L 40 50 L 32 50 L 30 43 L 28 43 L 26 50 L 20 50 L 23 38 Z" fill="#2563eb" stroke="#1d4ed8" stroke-width="1.5" />
  <path d="M 37 41 C 34 43 32 42 30 39" fill="none" stroke="#fbbf24" stroke-width="0.8" />

  <!-- Leather Belt -->
  <rect x="23" y="36" width="15" height="3.5" rx="1" fill="#78350f" />
  <rect x="23" y="35.5" width="4" height="4.5" rx="1" fill="#fbbf24" stroke="#d97706" stroke-width="0.8" />

  <!-- Flannel Shirt Torso (Profile View) -->
  <rect x="22" y="24" width="16" height="13" rx="2" fill="#dc2626" />
  <!-- Checks -->
  <rect x="22" y="27" width="16" height="3" fill="#991b1b" />
  <rect x="22" y="33" width="16" height="3" fill="#991b1b" />
  <rect x="29.5" y="24" width="3.5" height="13" fill="#991b1b" />
  <rect x="23.5" y="24" width="3.5" height="13" fill="#991b1b" />
  <rect x="29.5" y="27" width="3.5" height="3" fill="#1e293b" />
  <rect x="23.5" y="27" width="3.5" height="3" fill="#1e293b" />

  <!-- Arm with Flannel Sleeve (Swinging West) -->
  <rect x="28.5" y="25" width="5.5" height="11" rx="2" fill="#dc2626" />
  <rect x="28.5" y="33.5" width="5.5" height="2.5" fill="#991b1b" />
  <circle cx="31" cy="38.5" r="2.5" fill="#fed7aa" />

  <!-- Head & Profile Face Facing West -->
  <circle cx="30" cy="16" r="9" fill="#fed7aa" />
  <!-- Eye -->
  <ellipse cx="24.5" cy="15.5" rx="1.5" ry="1.8" fill="#0f172a" />
  <circle cx="24" cy="15" r="0.5" fill="#ffffff" />
  <!-- Nose ridge silhouette -->
  <path d="M 22 16 L 20 17.5 L 22 19" fill="none" stroke="#fdba74" stroke-width="1.2" stroke-linejoin="round" />

  <!-- Messy Brown Hair Profile -->
  <path d="M 38 16 C 38 8 22 7 22 13 C 24 10 27 8 31 8 C 35 8 38 12 38 16 Z" fill="#451a03" />
  <path d="M 39 15 C 41 18 40 21 38 21 C 37 19 36 17 36 15 Z" fill="#451a03" />
  <!-- Bangs sweeping left -->
  <path d="M 35 10 Q 28 13 23 12 Q 26 8 32 8 Z" fill="#5c2406" />
</svg>
